<?xml version="1.0" encoding="utf-8"?><svg xmlns="http://www.w3.org/2000/svg" xmlns:xlink="http://www.w3.org/1999/xlink"><symbol id="Consumos_black_24px" viewBox="0 0 24 24" xmlns="http://www.w3.org/2000/svg"><defs><style>.acls-1{fill:none}</style></defs><title>ic_name_of_icon_24px copy 2@x1</title><path class="acls-1" d="M0 0h24v24H0z"/><path d="M2 12c0 2.06 2.29 4 5 4a5.37 5.37 0 0 0 4.92-3h10.17v-2L12 11.08A5.56 5.56 0 0 0 7 8c-2.7 0-5 2-5 4z"/><path class="acls-1" d="M.71-2.54h24v24h-24z"/></symbol><symbol id="ReservasConsumo_black_24px" viewBox="0 0 24 24" xmlns="http://www.w3.org/2000/svg"><defs><style>.bcls-1{fill:none}</style></defs><title>ic_name_of_icon_24px copy 3@x1</title><path d="M3 12l1.5-1.5L6 12l1.5-1.5L9 12l1.5-1.5L12 12l1.5-1.5L15 12l1.5-1.5L18 12l1.5-1.5L21 12V2l-1.5 1.5L18 2l-1.5 1.5L15 2l-1.5 1.5L12 2l-1.5 1.5L9 2 7.5 3.5 6 2 4.5 3.5 3 2z"/><path class="bcls-1" d="M0 0h24v24H0z"/><path d="M3.06 18c0 2.06 2.29 4 5 4A5.37 5.37 0 0 0 13 19h8v-2h-8a5.56 5.56 0 0 0-5-3.08C5.35 14 3.06 15.93 3.06 18z"/></symbol><symbol id="Reservas_black_24px" viewBox="0 0 24 24" xmlns="http://www.w3.org/2000/svg"><defs><style>.ccls-1{fill:none}</style></defs><title>ic_name_of_icon_24px copy@x1</title><path d="M18 17H6v-2h12zm0-4H6v-2h12zm0-4H6V7h12zM3 22l1.5-1.5L6 22l1.5-1.5L9 22l1.5-1.5L12 22l1.5-1.5L15 22l1.5-1.5L18 22l1.5-1.5L21 22V2l-1.5 1.5L18 2l-1.5 1.5L15 2l-1.5 1.5L12 2l-1.5 1.5L9 2 7.5 3.5 6 2 4.5 3.5 3 2z"/><path class="ccls-1" d="M0 0h24v24H0z"/></symbol></svg>