<svg id="icons" xmlns="http://www.w3.org/2000/svg" viewBox="0 0 24 24"><defs><style>.cls-1{fill:none;}</style></defs><title>ic_name_of_icon_24px copy 3@x1</title><path d="M3,12l1.5-1.5L6,12l1.5-1.5L9,12l1.5-1.5L12,12l1.5-1.5L15,12l1.5-1.5L18,12l1.5-1.5L21,12,21,2,19.5,3.5,18,2,16.5,3.5,15,2,13.5,3.5,12,2,10.5,3.5,9,2,7.5,3.5,6,2,4.5,3.5,3,2Z"/><path class="cls-1" d="M0,0H24V24H0Z"/><path d="M3.06,18c0,2.06,2.29,4,5,4A5.37,5.37,0,0,0,13,19L21,19V17l-8,0a5.56,5.56,0,0,0-5-3.08C5.35,14,3.06,15.93,3.06,18Z"/></svg>